<svg width="272" height="68" viewBox="0 0 272 68" fill="none" xmlns="http://www.w3.org/2000/svg">
<path d="M164.476 12.316C164.476 14.812 163.396 16.708 161.236 18.004C162.412 18.436 163.396 19.18 164.188 20.236C164.98 21.292 165.376 22.792 165.376 24.736C165.376 26.656 164.656 28.18 163.216 29.308C161.8 30.436 159.76 31 157.096 31H148.6C148.192 31 147.856 30.868 147.592 30.604C147.328 30.316 147.196 29.944 147.196 29.488V6.44801C147.196 6.18401 147.232 6.01601 147.304 5.94401C147.4 5.84801 147.58 5.80001 147.844 5.80001H156.052C161.668 5.80001 164.476 7.97201 164.476 12.316ZM154.108 11.632V16.348H154.288C156.592 16.348 157.744 15.58 157.744 14.044C157.744 13.204 157.516 12.592 157.06 12.208C156.628 11.824 155.896 11.632 154.864 11.632H154.108ZM154.108 20.596V25.276H154.756C155.788 25.276 156.544 25.084 157.024 24.7C157.504 24.316 157.744 23.704 157.744 22.864C157.744 22.024 157.516 21.436 157.06 21.1C156.628 20.764 155.896 20.596 154.864 20.596H154.108Z" fill="white"/>
<path d="M179.947 6.52001C179.947 6.04001 181.243 5.80001 183.835 5.80001C186.451 5.80001 187.759 6.04001 187.759 6.52001V23.044C187.759 25.492 186.883 27.496 185.131 29.056C183.379 30.592 180.955 31.36 177.859 31.36C174.787 31.36 172.279 30.568 170.335 28.984C168.415 27.376 167.455 25.216 167.455 22.504V6.55601C167.455 6.07601 168.751 5.83601 171.343 5.83601C173.959 5.83601 175.267 6.07601 175.267 6.55601V22.792C175.267 23.272 175.519 23.656 176.023 23.944C176.551 24.232 177.103 24.376 177.679 24.376C178.255 24.376 178.771 24.244 179.227 23.98C179.707 23.716 179.947 23.32 179.947 22.792V6.52001Z" fill="white"/>
<path d="M197.656 30.496C197.656 30.88 196.516 31.072 194.236 31.072C191.932 31.072 190.78 30.892 190.78 30.532V7.06001C190.78 6.22001 191.224 5.80001 192.112 5.80001H198.988C205.3 5.80001 208.456 8.26001 208.456 13.18C208.456 14.668 208.168 16.024 207.592 17.248C207.016 18.448 206.2 19.408 205.144 20.128L209.68 27.688C209.488 28.264 208.864 28.924 207.808 29.668C206.368 30.7 205.18 31.216 204.244 31.216C203.308 31.216 202.612 30.88 202.156 30.208L198.772 22.324H197.656V30.496ZM197.656 12.172V17.572H197.836C200.116 17.572 201.256 16.624 201.256 14.728C201.256 13.864 201.028 13.228 200.572 12.82C200.14 12.388 199.42 12.172 198.412 12.172H197.656Z" fill="white"/>
<path d="M225.335 23.476L225.407 18.58C225.407 18.244 225.755 18.028 226.451 17.932C227.147 17.812 227.723 17.752 228.179 17.752L229.583 17.86C230.495 18.004 230.951 18.256 230.951 18.616L230.807 29.884C230.327 30.22 229.355 30.556 227.891 30.892C226.451 31.204 224.795 31.36 222.923 31.36C219.443 31.36 216.635 30.232 214.499 27.976C212.363 25.72 211.295 22.408 211.295 18.04C211.295 14.32 212.339 11.296 214.427 8.96801C216.515 6.64001 219.407 5.47601 223.103 5.47601C224.783 5.47601 226.295 5.64401 227.639 5.98001C229.007 6.29201 229.943 6.72401 230.447 7.27601C230.471 7.46801 230.483 7.82801 230.483 8.35601C230.483 8.88401 230.303 9.64001 229.943 10.624C229.583 11.584 229.175 12.304 228.719 12.784C228.263 13.264 227.927 13.504 227.711 13.504C227.519 13.504 227.303 13.42 227.063 13.252C226.847 13.06 226.403 12.868 225.731 12.676C225.059 12.46 224.411 12.352 223.787 12.352C222.299 12.352 221.087 12.832 220.151 13.792C219.239 14.752 218.783 16.24 218.783 18.256C218.783 20.272 219.251 21.808 220.187 22.864C221.147 23.896 222.239 24.412 223.463 24.412C224.711 24.412 225.335 24.1 225.335 23.476Z" fill="white"/>
<path d="M246.074 15.808C246.53 15.808 246.758 16.648 246.758 18.328C246.758 18.832 246.698 19.432 246.578 20.128C246.482 20.8 246.29 21.136 246.002 21.136H241.43V24.736H248.054C248.462 24.736 248.738 25.264 248.882 26.32C248.954 26.776 248.99 27.268 248.99 27.796C248.99 28.3 248.918 28.96 248.774 29.776C248.63 30.592 248.39 31 248.054 31H235.742C234.83 31 234.374 30.628 234.374 29.884V6.73601C234.374 6.11201 234.65 5.80001 235.202 5.80001H248.09C248.594 5.80001 248.846 6.86801 248.846 9.00401C248.846 11.116 248.594 12.172 248.09 12.172H241.43V15.808H246.074Z" fill="white"/>
<path d="M259.004 30.496C259.004 30.88 257.864 31.072 255.584 31.072C253.28 31.072 252.128 30.892 252.128 30.532V7.06001C252.128 6.22001 252.572 5.80001 253.46 5.80001H260.336C266.648 5.80001 269.804 8.26001 269.804 13.18C269.804 14.668 269.516 16.024 268.94 17.248C268.364 18.448 267.548 19.408 266.492 20.128L271.028 27.688C270.836 28.264 270.212 28.924 269.156 29.668C267.716 30.7 266.528 31.216 265.592 31.216C264.656 31.216 263.96 30.88 263.504 30.208L260.12 22.324H259.004V30.496ZM259.004 12.172V17.572H259.184C261.464 17.572 262.604 16.624 262.604 14.728C262.604 13.864 262.376 13.228 261.92 12.82C261.488 12.388 260.768 12.172 259.76 12.172H259.004Z" fill="white"/>
<path d="M164.476 45.316C164.476 47.812 163.396 49.708 161.236 51.004C162.412 51.436 163.396 52.18 164.188 53.236C164.98 54.292 165.376 55.792 165.376 57.736C165.376 59.656 164.656 61.18 163.216 62.308C161.8 63.436 159.76 64 157.096 64H148.6C148.192 64 147.856 63.868 147.592 63.604C147.328 63.316 147.196 62.944 147.196 62.488V39.448C147.196 39.184 147.232 39.016 147.304 38.944C147.4 38.848 147.58 38.8 147.844 38.8H156.052C161.668 38.8 164.476 40.972 164.476 45.316ZM154.108 44.632V49.348H154.288C156.592 49.348 157.744 48.58 157.744 47.044C157.744 46.204 157.516 45.592 157.06 45.208C156.628 44.824 155.896 44.632 154.864 44.632H154.108ZM154.108 53.596V58.276H154.756C155.788 58.276 156.544 58.084 157.024 57.7C157.504 57.316 157.744 56.704 157.744 55.864C157.744 55.024 157.516 54.436 157.06 54.1C156.628 53.764 155.896 53.596 154.864 53.596H154.108Z" fill="white"/>
<path d="M175.051 63.496C175.051 63.88 173.911 64.072 171.631 64.072C169.327 64.072 168.175 63.892 168.175 63.532V40.06C168.175 39.22 168.619 38.8 169.507 38.8H176.383C182.695 38.8 185.851 41.26 185.851 46.18C185.851 47.668 185.563 49.024 184.987 50.248C184.411 51.448 183.595 52.408 182.539 53.128L187.075 60.688C186.883 61.264 186.259 61.924 185.203 62.668C183.763 63.7 182.575 64.216 181.639 64.216C180.703 64.216 180.007 63.88 179.551 63.208L176.167 55.324H175.051V63.496ZM175.051 45.172V50.572H175.231C177.511 50.572 178.651 49.624 178.651 47.728C178.651 46.864 178.423 46.228 177.967 45.82C177.535 45.388 176.815 45.172 175.807 45.172H175.051Z" fill="white"/>
<path d="M200.101 64.36C196.741 64.36 193.993 63.256 191.857 61.048C189.745 58.84 188.689 55.624 188.689 51.4C188.689 47.152 189.757 43.936 191.893 41.752C194.053 39.568 196.825 38.476 200.209 38.476C203.617 38.476 206.365 39.556 208.453 41.716C210.541 43.852 211.585 47.104 211.585 51.472C211.585 55.816 210.517 59.056 208.381 61.192C206.245 63.304 203.485 64.36 200.101 64.36ZM200.137 45.388C198.985 45.388 198.013 45.916 197.221 46.972C196.453 48.028 196.069 49.516 196.069 51.436C196.069 53.332 196.441 54.796 197.185 55.828C197.929 56.836 198.901 57.34 200.101 57.34C201.325 57.34 202.309 56.824 203.053 55.792C203.821 54.76 204.205 53.284 204.205 51.364C204.205 49.444 203.809 47.968 203.017 46.936C202.249 45.904 201.289 45.388 200.137 45.388Z" fill="white"/>
<path d="M215.412 55.216C215.868 55.576 216.648 56.068 217.752 56.692C218.88 57.316 219.948 57.628 220.956 57.628C221.988 57.628 222.504 57.232 222.504 56.44C222.504 56.08 222.36 55.768 222.072 55.504C221.784 55.216 221.256 54.892 220.488 54.532C219.72 54.172 219.144 53.896 218.76 53.704C218.376 53.488 217.86 53.152 217.212 52.696C216.588 52.216 216.108 51.724 215.772 51.22C214.812 49.852 214.332 48.112 214.332 46C214.332 43.888 215.112 42.112 216.672 40.672C218.256 39.208 220.32 38.476 222.864 38.476C224.592 38.476 226.188 38.668 227.652 39.052C229.116 39.412 229.872 39.892 229.92 40.492C229.92 40.564 229.92 40.636 229.92 40.708C229.92 41.548 229.656 42.616 229.128 43.912C228.6 45.184 228.228 45.892 228.012 46.036C226.476 45.244 225.096 44.848 223.872 44.848C222.672 44.848 222.072 45.28 222.072 46.144C222.072 46.672 222.516 47.14 223.404 47.548C223.596 47.644 223.872 47.776 224.232 47.944C224.592 48.112 225 48.316 225.456 48.556C225.936 48.772 226.44 49.06 226.968 49.42C227.52 49.756 228.108 50.212 228.732 50.788C230.004 51.988 230.64 53.572 230.64 55.54C230.64 58.108 229.932 60.208 228.516 61.84C227.1 63.472 224.916 64.312 221.964 64.36C220.524 64.36 219.216 64.24 218.04 64C216.888 63.76 215.88 63.292 215.016 62.596C214.152 61.9 213.72 61.06 213.72 60.076C213.72 59.092 213.9 58.12 214.26 57.16C214.62 56.176 215.004 55.528 215.412 55.216Z" fill="white"/>
<path d="M80.2341 0.0268932C76.9743 0.114303 72.5634 0.298835 67.0595 0.551353C65.8987 0.609627 63.8868 0.697037 62.5809 0.75531C61.2751 0.813583 55.9259 0.891281 50.6831 0.93013L41.1552 0.988403L40.6039 1.21178C37.6343 2.40639 36.754 6.21358 38.9208 8.49595C39.4431 9.04955 39.9655 9.4089 40.6716 9.69056L41.252 9.92365L54.504 10.0208L55.065 10.2539C55.8485 10.5647 56.8352 11.5165 57.2317 12.3226C58.4022 14.7312 57.4736 17.538 55.1617 18.6452L54.504 18.956L25.6784 19.0531L25.1368 19.2765C22.7669 20.238 21.6158 22.6855 22.4283 25.0456C22.8152 26.1722 23.6181 27.0657 24.7498 27.629L25.4753 27.9884L33.8424 28.0369C41.5325 28.0855 42.258 28.1049 42.6545 28.2603C44.0184 28.8042 44.9857 29.8823 45.3823 31.3294C45.9724 33.4564 44.947 35.8164 43.0511 36.7197L42.4127 37.0208L36.3671 37.079C31.7724 37.1179 30.2247 37.1567 29.9346 37.2538C28.6964 37.6618 27.584 38.6038 27.1004 39.6722C26.2588 41.4981 26.6361 43.5474 28.0677 44.9071C28.6384 45.4413 29.064 45.6938 29.8862 45.9657C30.3892 46.1405 31.134 46.1502 44.5891 46.1988L58.7601 46.2474L59.3114 46.5193C61.6039 47.6459 62.4745 50.5207 61.2557 52.9391C60.9172 53.5995 60.0369 54.4542 59.3405 54.8038L58.7601 55.0855L51.8439 55.1341C45.0438 55.1826 44.918 55.1826 44.4247 55.3963C43.293 55.8528 42.4998 56.5229 41.9484 57.465C41.2229 58.7081 41.2229 60.5243 41.9484 61.8549C42.4901 62.8456 43.8056 63.8071 44.9567 64.0596C45.3243 64.1373 49.5127 64.1664 59.6403 64.1664H73.8016L75.0881 64.7977C77.7772 66.1089 81.3755 67.0607 85.4092 67.5074C89.2784 67.9445 90.5262 68.0027 96.5331 68.0027C101.302 68.0027 102.792 67.9736 104.562 67.8279C108.769 67.488 111.381 67.1675 113.925 66.6819C115.57 66.3711 119.139 65.4387 120.039 65.0891C124.401 63.4089 127.129 60.534 128.415 56.251C128.87 54.7553 129.228 52.4049 129.228 50.9384V50.3556L128.628 50.9189C126.8 52.6186 123.453 54.124 119.091 55.2312C115.763 56.0664 110.869 56.824 107.386 57.0376C106.148 57.1153 106.129 57.1639 107.106 57.6398C108.237 58.1934 108.953 58.2905 111.816 58.2905C113.229 58.2905 115.318 58.2323 116.469 58.1643C119.062 58.0186 120.29 58.106 121.103 58.5139C121.799 58.8635 122.021 59.184 122.021 59.8445C122.021 60.3204 121.992 60.4078 121.635 60.7671C120.261 62.1948 115.715 63.234 108.479 63.7779C103.759 64.1276 101.331 64.215 96.0495 64.215C90.7197 64.215 89.23 64.147 85.8928 63.7682C81.9946 63.3215 79.528 62.729 76.8292 61.6121C73.1535 60.0873 71.9347 58.8927 72.8827 57.6981L73.1051 57.4164H76.6164C80.4566 57.4067 81.1047 57.3484 82.7491 56.7948L83.5229 56.5423L82.8458 56.5229C76.6551 56.3189 71.6348 54.7553 69.1972 52.2689C68.0655 51.1229 67.3787 49.4038 67.5625 48.1704L67.6205 47.7625L68.2686 48.4229C69.4778 49.6466 71.1512 50.5596 73.4147 51.2394C75.9006 51.9776 77.6031 52.201 83.3779 52.502C90.4295 52.8808 93.9891 52.9974 99.0481 52.9974C115.221 52.9974 125.194 51.2006 128.309 47.7333C129.189 46.7524 129.508 45.7035 129.334 44.4215C129.102 42.7315 128.396 41.6729 127.109 41.061C126.626 40.8377 126.452 40.8085 125.455 40.8085C124.44 40.8085 124.295 40.8279 123.801 41.0708C123.511 41.2164 123.105 41.4981 122.911 41.702C122.583 42.0225 122.553 42.1002 122.553 42.6053C122.553 43.7416 122.05 45.1402 121.422 45.7326C120.367 46.7427 118.21 46.8592 117.301 45.9463C117.011 45.6452 116.556 44.7517 116.556 44.47C116.556 44.3341 115.753 43.8679 115.26 43.7319C114.003 43.3628 112.958 43.2657 110.172 43.2366C105.568 43.188 100.248 43.6639 94.376 44.6448C90.7583 45.247 89.9265 45.4898 88.0209 46.4416C85.9896 47.4614 85.0126 48.0441 83.9195 48.8697C82.7685 49.7438 82.3428 49.9283 81.627 49.8603C80.563 49.7632 79.8666 49.1416 77.8159 46.461C75.446 43.3531 74.3239 42.2751 72.4667 41.3233L71.4607 40.8085H70.4837C69.9421 40.8085 69.3617 40.8474 69.1876 40.8959C68.9264 40.9639 68.849 40.9348 68.6265 40.7211C68.3847 40.4783 68.3654 40.4103 68.4041 39.7402C68.4331 39.1477 68.4718 38.9826 68.6652 38.7787C68.8007 38.6427 68.9651 38.5261 69.0328 38.5261C69.1102 38.5261 69.5261 38.6913 69.9614 38.9049C72.0411 39.8859 73.3083 40.119 77.7192 40.3229C99.1739 41.3038 115.821 41.1193 122.234 39.8276C123.695 39.5362 124.072 39.41 125.407 38.769C128.754 37.147 129.992 35.5251 130.002 32.7377C130.002 31.8247 129.702 29.9405 129.489 29.5326C129.267 29.1053 128.754 28.6488 128.222 28.4157C126.848 27.8136 124.256 28.2798 123.086 29.3578C122.728 29.6783 122.728 29.6977 122.786 30.2125C122.892 31.038 122.863 33.3592 122.747 34.1071C122.505 35.661 122.012 36.8362 121.296 37.5938C119.458 39.5362 117.079 38.3416 115.347 34.6024C114.912 33.6603 114.825 33.5729 114.283 33.5729C113.915 33.5729 113.828 33.67 113.664 34.2528C113.383 35.224 112.88 35.9718 112.261 36.3409C111.372 36.8654 110.23 36.8556 109.156 36.3215C108.218 35.865 107.773 35.2628 107.27 33.8157C106.661 32.0772 106.196 31.4751 105.19 31.1351C104.697 30.97 103.304 30.97 101.757 31.1157C101.089 31.1837 98.9127 31.31 96.92 31.3974C92.4124 31.5916 83.8035 31.5431 81.2014 31.3003C77.8062 30.9992 74.411 30.4553 73.347 30.0668C73.0761 29.96 72.5344 29.6103 72.1475 29.2995C71.3737 28.6585 70.8513 28.3866 70.1549 28.2215C69.5938 28.0952 69.0908 28.1632 68.1913 28.4837C67.4755 28.7362 67.1272 28.7265 66.7983 28.4351C66.1793 27.8913 66.1116 26.415 66.6726 25.3175C66.9531 24.7736 67.6205 24.3852 68.1042 24.492C68.2686 24.5308 68.8877 24.8902 69.4778 25.2981C70.7643 26.1722 72.0604 26.8132 73.0955 27.0657C74.6044 27.4445 79.8569 28.0078 84.7321 28.3283C91.0776 28.7362 103.633 28.7362 111.381 28.3283C121.644 27.7844 126.984 26.3762 128.628 23.7927C129.005 23.2003 129.15 22.4039 129.15 20.9082C129.15 18.9075 128.657 16.9747 127.612 14.8866C125.726 11.1085 123.134 8.30171 119.506 6.11646C114.061 2.82401 106.245 0.891281 95.6142 0.201713C93.4378 0.0657421 83.136 -0.0508046 80.2341 0.0268932ZM99.0771 3.85351C104.068 4.09632 108.663 4.93157 112.3 6.25243C115.26 7.33049 117.311 8.47653 119.545 10.2927L120.251 10.8754L120.213 11.565C120.106 13.1287 119.158 13.9736 117.185 14.2359L116.701 14.3039L117.475 14.4301C117.901 14.4981 118.839 14.5758 119.555 14.6049C120.609 14.6535 120.967 14.6341 121.412 14.4981C122.331 14.2359 122.921 14.3427 123.269 14.8477C123.763 15.5567 123.124 16.528 121.683 17.2564C120.358 17.9168 117.214 18.6452 114.67 18.8686C113.296 18.9852 113.471 19.0726 115.25 19.1503C116.904 19.2182 120.28 19.1697 122.089 19.0434C122.892 18.9852 122.931 18.9852 123.173 19.228C123.647 19.7039 123.405 20.2769 122.563 20.7042C120.687 21.656 114.602 22.5204 110.801 22.3747L109.447 22.3262L110.317 22.501C113.519 23.1808 117.998 23.4334 121.441 23.1226C122.012 23.074 122.147 23.0837 122.341 23.2391C122.466 23.3459 122.573 23.5499 122.583 23.715C122.602 24.0549 122.418 24.1715 121.373 24.4337C116.992 25.5603 102.337 26.279 91.6483 25.9003C82.1687 25.5603 75.92 24.7736 72.6795 23.5208C71.4897 23.0546 70.8997 22.6758 70.9674 22.4136C70.9964 22.297 71.0545 22.1805 71.0931 22.1611C71.1415 22.1319 71.5575 22.2387 72.0314 22.3941C73.4147 22.8603 74.4207 23.006 76.7228 23.0546C78.9283 23.1129 81.5206 23.0157 81.3755 22.8895C81.3368 22.8506 80.8242 22.7438 80.2341 22.6564C76.7132 22.0931 73.6371 21.3258 72.4377 20.6945C71.422 20.1506 70.8997 19.4805 71.1028 18.9366C71.2092 18.6452 71.6252 18.587 72.7085 18.7229C74.0434 18.888 76.6938 18.8977 76.9743 18.7326C77.2548 18.5675 77.2452 18.4607 76.926 18.3733C76.2972 18.2179 74.4787 17.237 73.7436 16.6445C72.902 15.9647 72.6408 15.615 72.457 14.8866C72.1282 13.5657 72.9117 12.3711 75.2816 10.6132C80.9499 6.3884 87.4792 4.19344 95.3724 3.86322C96.301 3.81466 97.0845 3.78552 97.1135 3.77581C97.1425 3.7661 98.0228 3.80495 99.0771 3.85351Z" fill="white"/>
<path d="M92.1996 7.32078C92.1319 7.34991 92.0158 7.4956 91.9288 7.6607C91.5128 8.47653 92.4414 9.2438 93.0315 8.56394C93.5538 7.94236 92.9348 7.0197 92.1996 7.32078Z" fill="white"/>
<path d="M83.8422 9.87508C83.0683 10.1082 82.6814 10.5744 82.6234 11.3319C82.5943 11.769 82.6234 11.9244 82.8168 12.206C83.2521 12.8567 84.2388 13.1578 84.9546 12.847C85.3608 12.6819 85.8541 12.1089 85.9412 11.7204C86.1056 10.9628 85.5446 10.0985 84.7611 9.88479C84.3451 9.76824 84.2097 9.76824 83.8422 9.87508Z" fill="white"/>
<path d="M91.6966 10.5258C91.4258 10.6229 91.0195 11.0697 90.9131 11.3999C90.7583 11.8855 90.8938 12.4488 91.2517 12.8276C92.2867 13.9348 93.9117 12.6625 93.312 11.2057C93.0702 10.6326 92.306 10.3024 91.6966 10.5258Z" fill="white"/>
<path d="M77.9029 12.1089C77.5934 12.2352 77.1001 12.8859 77.0323 13.2549C76.9453 13.692 77.1194 14.0513 77.4096 14.0513C77.9513 14.0513 78.7348 13.1481 78.7348 12.5362C78.7348 12.1089 78.3672 11.9244 77.9029 12.1089Z" fill="white"/>
<path d="M85.9605 13.6726C85.709 13.8182 85.4866 14.3233 85.5639 14.5661C85.7284 15.1294 86.3088 15.4111 86.9085 15.2168C87.9338 14.8769 87.634 13.556 86.5409 13.5657C86.3184 13.5657 86.0573 13.6143 85.9605 13.6726Z" fill="white"/>
<path d="M89.8104 17.0427C89.3267 17.2758 89.1526 17.47 88.8818 18.0819C88.7173 18.451 88.6883 18.6744 88.727 19.1211C88.8818 20.8305 90.4972 21.588 91.5902 20.4614C92.0448 19.9952 92.2286 19.3931 92.1513 18.6646C92.0158 17.3438 90.8551 16.5474 89.8104 17.0427Z" fill="white"/>
<path d="M79.1991 17.8003C78.8605 17.9751 78.7348 18.2179 78.7348 18.6744C78.7348 19.2182 79.1217 19.5873 79.6828 19.5873C80.2051 19.5873 80.4276 19.4708 80.6307 19.0823C81.0853 18.2082 80.089 17.3147 79.1991 17.8003Z" fill="white"/>
<path d="M95.1692 21.1704C94.763 21.4909 94.6952 21.9862 95.0145 22.3553C95.5852 23.0254 96.6782 22.3456 96.3397 21.5298C96.1655 21.1024 95.5175 20.8985 95.1692 21.1704Z" fill="white"/>
<path d="M8.95384 18.9657C7.59962 19.3931 6.58395 20.51 6.139 22.0542C5.90684 22.8409 5.97455 24.2783 6.27442 25.0456C6.7097 26.1819 7.70602 27.192 8.79907 27.6193C9.15697 27.7553 9.55356 27.7844 10.9368 27.7941H12.6296L13.3647 27.4251C15.5605 26.347 16.4601 23.579 15.3767 21.2578C14.9898 20.4323 14.1579 19.5679 13.355 19.1697C12.7263 18.8589 12.7166 18.8589 11.0722 18.8395C9.80506 18.82 9.32141 18.8492 8.95384 18.9657Z" fill="white"/>
<path d="M3.24677 37.1761C2.19241 37.4287 1.04133 38.3902 0.538331 39.4294C0.27716 39.9538 -0.00335693 41.0707 -0.00335693 41.5855C-0.00335693 42.1002 0.27716 43.2171 0.538331 43.7513C1.07035 44.8294 2.14405 45.7132 3.29513 46.0046C3.89486 46.16 10.3564 46.092 10.8497 45.9269C11.5075 45.7035 12.3587 45.043 12.823 44.3923C13.8871 42.8966 14.0225 40.993 13.1809 39.3711C12.736 38.5261 11.8267 37.6618 11.0529 37.351C10.5015 37.1276 10.4048 37.1179 7.05793 37.0984C5.17169 37.0887 3.45957 37.1276 3.24677 37.1761Z" fill="white"/>
</svg>
